<svg width="32" height="32" viewBox="0 0 32 32" fill="none" xmlns="http://www.w3.org/2000/svg">
<path d="M28.3289 14.6555C28.3191 14.6555 28.3098 14.6584 28.3 14.6584C28.4819 14.2388 28.5838 13.7752 28.5838 13.2873C28.5838 11.3759 27.0341 9.82561 25.1222 9.82561C24.4466 9.82561 23.8181 10.0219 23.2854 10.3575C22.5647 8.60534 20.8428 7.37083 18.8313 7.37083C16.1713 7.37083 14.0149 9.52695 14.0149 12.188C14.0149 12.3885 14.0311 12.5848 14.055 12.7796C14.0415 12.7796 14.0284 12.7782 14.0149 12.7782C12.2314 12.7782 10.7856 14.2232 10.7856 16.0067C10.7856 17.7902 12.2314 19.2366 14.0149 19.2366H28.3289C29.5938 19.2366 30.6191 18.2111 30.6191 16.9468C30.6191 15.681 29.5938 14.6555 28.3289 14.6555Z" fill="#C2CEF2"/>
<path d="M22.5902 17.6692C22.5783 17.6692 22.5673 17.672 22.5554 17.672C22.7747 17.1643 22.8977 16.6054 22.8977 16.018C22.8977 13.7125 21.029 11.8451 18.724 11.8451C17.9093 11.8451 17.1517 12.0812 16.5093 12.4851C15.6403 10.3731 13.5644 8.88403 11.1389 8.88403C7.93175 8.88403 5.33176 11.4853 5.33176 14.6925C5.33176 14.9342 5.35138 15.1717 5.38025 15.4064C5.3639 15.4064 5.34811 15.4036 5.33176 15.4036C3.18147 15.4036 1.43823 17.1472 1.43823 19.2975C1.43823 21.4478 3.18147 23.191 5.33176 23.191H22.5902C24.1153 23.191 25.3516 21.9548 25.3516 20.4298C25.3516 18.9048 24.1153 17.6692 22.5902 17.6692Z" fill="white"/>
</svg>
